<?xml version="1.0" encoding="UTF-8"?>
<!DOCTYPE svg PUBLIC "-//W3C//DTD SVG 1.1//EN" "http://www.w3.org/Graphics/SVG/1.1/DTD/svg11.dtd">
<!-- Creator: CorelDRAW X7 -->
<svg xmlns="http://www.w3.org/2000/svg" xml:space="preserve" width="1024px" height="1024px" version="1.1" style="shape-rendering:geometricPrecision; text-rendering:geometricPrecision; image-rendering:optimizeQuality; fill-rule:evenodd; clip-rule:evenodd"
viewBox="0 0 1024 1024"
 xmlns:xlink="http://www.w3.org/1999/xlink">
 <defs>
  <style type="text/css">
   <![CDATA[
    .fil3 {fill:#EF8762}
    .fil4 {fill:#8C3C31;fill-rule:nonzero}
    .fil0 {fill:url(#id0)}
    .fil1 {fill:url(#id1)}
    .fil2 {fill:url(#id2)}
   ]]>
  </style>
  <linearGradient id="id0" gradientUnits="userSpaceOnUse" x1="633.441" y1="1044.45" x2="390.559" y2="-20.4477">
   <stop offset="0" style="stop-opacity:1; stop-color:#FFF000"/>
   <stop offset="1" style="stop-opacity:1; stop-color:#C95F5F"/>
  </linearGradient>
  <linearGradient id="id1" gradientUnits="userSpaceOnUse" x1="331.994" y1="761.908" x2="692.006" y2="262.092">
   <stop offset="0" style="stop-opacity:0.278431; stop-color:#F08519"/>
   <stop offset="0.768627" style="stop-opacity:0; stop-color:#E55923"/>
   <stop offset="0.988235" style="stop-opacity:1; stop-color:#D2CDE6"/>
   <stop offset="1" style="stop-opacity:0; stop-color:#D92C2D"/>
  </linearGradient>
  <linearGradient id="id2" gradientUnits="userSpaceOnUse" x1="-49.664" y1="78.8198" x2="1073.66" y2="945.18">
   <stop offset="0" style="stop-opacity:0.588235; stop-color:#E40082"/>
   <stop offset="1" style="stop-opacity:0; stop-color:white"/>
  </linearGradient>
 </defs>
 <g id="图层_x0020_1">
  <metadata id="CorelCorpID_0Corel-Layer"/>
  <circle class="fil0" cx="512" cy="512" r="512"/>
  <circle class="fil1" cx="512" cy="512" r="512"/>
  <circle class="fil2" cx="512" cy="512" r="512"/>
  <circle class="fil3" cx="512" cy="512" r="512"/>
  <g id="_1784418306784">
   <path class="fil4" d="M358 745c-6,6 -16,15 -29,26 5,6 14,13 26,24 3,3 5,6 5,10 0,3 -1,6 -4,9 -3,3 -6,4 -10,4 -4,0 -9,-3 -16,-8l-13 -12c-6,-7 -13,-11 -19,-13 -8,-3 -11,-7 -11,-13 0,-5 3,-9 10,-12 6,-3 14,-8 22,-16 11,-11 18,-17 20,-19 3,-2 6,-3 9,-3 4,0 8,1 10,4 3,3 5,6 5,9 0,4 -2,7 -5,10z"/>
   <path id="1" class="fil4" d="M479 680c-3,6 -7,16 -12,29 -5,13 -12,28 -21,45 -8,15 -17,30 -25,44 -1,3 -8,17 -20,43 -2,6 -7,8 -13,8 -3,0 -7,-1 -10,-3 -3,-3 -4,-6 -4,-10 0,-2 0,-3 1,-5 6,-15 16,-37 32,-66 16,-28 27,-50 33,-65 4,-12 8,-20 10,-24 6,-11 11,-17 16,-17 4,1 7,2 10,4 3,3 5,6 5,10 0,2 -1,5 -2,7z"/>
   <path id="2" class="fil4" d="M566 777c-18,15 -36,28 -55,40 -3,1 -6,2 -9,2 -4,0 -7,-1 -10,-4 -2,-3 -4,-6 -4,-9 0,-4 2,-8 6,-11 9,-6 21,-15 38,-27 -8,-6 -16,-13 -24,-20 -10,-9 -15,-16 -15,-20 0,-3 2,-6 5,-9 3,-3 6,-4 10,-4 4,0 7,2 11,5 16,17 31,29 44,35 6,3 9,6 9,11 0,4 -2,7 -6,11z"/>
   <path class="fil4" d="M543 284c-14,0 -25,-8 -32,-23 -3,-7 -6,-11 -9,-13 -3,-1 -9,-1 -19,-1 -20,0 -44,15 -70,47 -37,44 -56,85 -56,123 0,18 6,33 18,45 11,13 25,19 42,19 16,0 32,-4 48,-12 6,-3 18,-11 37,-24 12,-8 22,-12 28,-12 10,0 18,3 24,10 7,7 10,14 10,23 0,9 -4,17 -13,24 -44,37 -89,56 -134,56 -36,0 -67,-13 -91,-39 -24,-26 -36,-55 -36,-90 0,-53 23,-108 70,-164 40,-47 81,-71 123,-71 7,0 13,0 19,1 5,0 10,1 15,2 7,-7 15,-11 25,-11 17,0 27,10 30,29 3,13 5,29 5,46 0,8 -3,16 -7,22 -6,9 -15,13 -27,13z"/>
   <path class="fil4" d="M608 565c-22,-2 -37,-3 -46,-3 -30,0 -45,10 -45,31 0,21 16,31 47,30 10,0 26,1 46,2 1,17 1,39 1,65 -1,38 -1,59 -1,64 0,30 2,53 5,70 4,17 14,26 32,26 9,0 17,-3 23,-9 7,-6 10,-13 10,-22 0,-2 0,-4 0,-6 -4,-23 -6,-44 -6,-64l0 -120c3,0 8,1 16,2 6,1 10,1 14,1 9,0 17,-3 24,-9 6,-5 9,-13 9,-23 0,-15 -7,-24 -23,-29 -7,-2 -21,-3 -42,-4 0,-3 -1,-12 -3,-27 -5,-36 -14,-63 -29,-80 -19,-22 -47,-33 -85,-33 -30,0 -44,11 -44,32 0,20 13,31 41,31 19,0 33,7 42,20 6,10 11,26 13,48l1 7z"/>
  </g>
 </g>
</svg>
